<svg width="113" height="30" viewBox="0 0 113 30" fill="none" xmlns="http://www.w3.org/2000/svg">
<path d="M14.514 23.424C13.53 25.761 12.792 27.483 11.849 29.492C4.264 29.697 0.574 27.483 0.533 22.563C0.492 18.668 3.772 16.536 8.774 16.167C10.66 16.003 13.366 16.413 15.457 16.7L15.498 15.511C13.858 14.978 11.849 14.732 9.799 14.732C7.421 14.773 5.002 15.142 3.157 15.757L1.435 7.598C4.633 6.204 9.184 5.384 13.284 5.384C18.942 5.384 23.452 8.664 23.452 12.805V29H14.514L15.498 23.424H14.514ZM13.448 20.595V20.308C13.448 19.488 13.243 18.586 12.218 18.586C11.234 18.586 10.906 19.365 10.906 20.431C10.906 21.456 11.234 22.358 12.218 22.358C13.202 22.358 13.448 21.661 13.448 20.595ZM25.4078 29V0.177H35.8218V29H25.4078ZM37.2879 17.438C37.2879 9.73 41.9209 5.384 49.1779 5.384C56.4759 5.384 61.0679 10.222 61.0679 17.438C61.0679 25.146 56.4759 29.492 49.1779 29.492C41.9209 29.492 37.2879 24.654 37.2879 17.438ZM47.2919 17.438C47.2919 19.365 47.8249 20.349 49.1779 20.349C50.5719 20.349 51.0639 19.365 51.0639 17.438C51.0639 15.511 50.5719 14.527 49.1779 14.527C47.8249 14.527 47.2919 15.511 47.2919 17.438ZM86.427 5.876V29H76.013L76.505 20.677H75.521L73.676 29.533C67.444 29.697 62.524 26.868 62.524 23.178V5.876H72.938V17.725C72.938 18.75 73.307 19.201 74.291 19.201C75.029 19.201 75.562 18.873 76.013 18.463V5.876H86.427ZM112.046 29H102.329L102.37 23.588H101.386C100.894 27.442 98.7623 29.492 95.7283 29.492C91.3003 29.492 87.8973 25.761 87.8973 18.217C87.8973 9.73 92.2433 5.384 99.1723 5.384C100.115 7.106 101.837 10.55 102.616 12.723H103.6L101.632 5.876V0.177H112.046V29ZM99.7463 20.349C100.894 20.349 101.632 19.652 101.632 18.258V16.659C101.632 15.388 100.894 14.527 99.7463 14.527C98.3933 14.527 97.9013 15.511 97.9013 17.438C97.9013 19.365 98.3933 20.349 99.7463 20.349Z" fill="#8289FC"/>
</svg>
